<svg xmlns="http://www.w3.org/2000/svg" viewBox="0 0 180 120">
  <path fill="#172554" d="M0 0h180v120H0z"/>
  <path fill="#e0e7ff" d="m30 18 2 6 6 2-6 2-2 6-2-6-6-2 6-2Zm115 63 2 6 6 2-6 2-2 6-2-6-6-2 6-2Z"/>
  <circle cx="90" cy="60" r="32" fill="#a78bfa"/>
  <path fill="#7c3aed" d="M62 45q32 17 54-3a32 32 0 0 1-54 35q31 8 58-14-32 8-58-18Z"/>
  <ellipse cx="90" cy="60" rx="63" ry="15" transform="rotate(-24 90 60)" fill="none" stroke="#67e8f9" stroke-width="7"/>
  <circle cx="133" cy="32" r="6" fill="#fef3c7"/>
</svg>
